<svg width="56" height="56" viewBox="0 0 56 56" fill="none" xmlns="http://www.w3.org/2000/svg">
<g filter="url(#filter0_di_450_2374)">
<rect x="6" y="4" width="44" height="44" rx="22" fill="url(#paint0_linear_450_2374)" shape-rendering="crispEdges"/>
<g clip-path="url(#clip0_450_2374)">
<path fill-rule="evenodd" clip-rule="evenodd" d="M23.9495 18.3586C23.957 18.3629 23.9644 18.3672 23.9719 18.3715L35.1366 24.8438C35.2645 24.9178 35.3994 24.996 35.5061 25.0719C35.6139 25.1487 35.7978 25.2931 35.905 25.5402C36.0317 25.8324 36.0317 26.1676 35.905 26.4598C35.7978 26.7069 35.6139 26.8513 35.5061 26.9281C35.3994 27.004 35.2645 27.0821 35.1367 27.1562L23.9495 33.6415C23.7974 33.7297 23.6441 33.8186 23.5128 33.8793C23.3897 33.9362 23.1472 34.0385 22.8632 33.985C22.5394 33.9241 22.2607 33.7097 22.1085 33.4045C21.975 33.1368 21.996 32.8642 22.0112 32.7242C22.0274 32.575 22.0628 32.3953 22.0979 32.2171L22.6931 29.192C22.7001 29.1565 22.707 29.1216 22.7137 29.087C22.8395 28.4457 22.9344 27.962 23.1619 27.5471C23.3621 27.1821 23.6343 26.8657 23.9603 26.6191C24.3254 26.343 25.4766 26.1939 26.0601 26C25.4766 25.8061 24.3254 25.657 23.9603 25.3809C23.6343 25.1343 23.3621 24.8179 23.1619 24.4529C22.9344 24.038 22.8395 23.5543 22.7137 22.913C22.707 22.8784 22.7001 22.8435 22.6931 22.808L22.103 19.8091C22.1013 19.8003 22.0996 19.7916 22.0979 19.7829C22.0628 19.6047 22.0274 19.425 22.0112 19.2758C21.996 19.1358 21.975 18.8632 22.1085 18.5955C22.2607 18.2903 22.5394 18.0759 22.8632 18.015C23.1472 17.9615 23.3897 18.0638 23.5128 18.1207C23.6441 18.1814 23.7974 18.2703 23.9495 18.3586Z" fill="#1B1E1F"/>
</g>
</g>
<defs>
<filter id="filter0_di_450_2374" x="0" y="0" width="56" height="56" filterUnits="userSpaceOnUse" color-interpolation-filters="sRGB">
<feFlood flood-opacity="0" result="BackgroundImageFix"/>
<feColorMatrix in="SourceAlpha" type="matrix" values="0 0 0 0 0 0 0 0 0 0 0 0 0 0 0 0 0 0 127 0" result="hardAlpha"/>
<feOffset dy="2"/>
<feGaussianBlur stdDeviation="3"/>
<feComposite in2="hardAlpha" operator="out"/>
<feColorMatrix type="matrix" values="0 0 0 0 0.510071 0 0 0 0 0.279119 0 0 0 0 0.886887 0 0 0 0.3 0"/>
<feBlend mode="normal" in2="BackgroundImageFix" result="effect1_dropShadow_450_2374"/>
<feBlend mode="normal" in="SourceGraphic" in2="effect1_dropShadow_450_2374" result="shape"/>
<feColorMatrix in="SourceAlpha" type="matrix" values="0 0 0 0 0 0 0 0 0 0 0 0 0 0 0 0 0 0 127 0" result="hardAlpha"/>
<feOffset dy="1"/>
<feComposite in2="hardAlpha" operator="arithmetic" k2="-1" k3="1"/>
<feColorMatrix type="matrix" values="0 0 0 0 1 0 0 0 0 1 0 0 0 0 1 0 0 0 0.5 0"/>
<feBlend mode="normal" in2="shape" result="effect2_innerShadow_450_2374"/>
</filter>
<linearGradient id="paint0_linear_450_2374" x1="3.525" y1="13.075" x2="50" y2="42.5" gradientUnits="userSpaceOnUse">
<stop stop-color="#A4D3FF"/>
<stop offset="0.515" stop-color="#A5AEFF"/>
<stop offset="1" stop-color="#A4D3FF"/>
</linearGradient>
<clipPath id="clip0_450_2374">
<rect width="24" height="24" fill="white" transform="translate(16 14)"/>
</clipPath>
</defs>
</svg>
