<svg width="44" height="44" viewBox="0 0 44 44" fill="none" xmlns="http://www.w3.org/2000/svg">
<rect width="44" height="44" rx="22" fill="#1B1E1F"/>
<path fill-rule="evenodd" clip-rule="evenodd" d="M18.2 13C18.6418 13 19 13.3582 19 13.8C19 14.2418 18.6418 14.6 18.2 14.6H16C15.2268 14.6 14.6 15.2268 14.6 16V17.2C14.6 17.6418 14.2418 18 13.8 18C13.3582 18 13 17.6418 13 17.2V16C13 14.3431 14.3431 13 16 13H18.2ZM18.2 29.4C18.6418 29.4 19 29.7582 19 30.2C19 30.6418 18.6418 31 18.2 31H16C14.3431 31 13 29.6569 13 28V26.8C13 26.3582 13.3582 26 13.8 26C14.2418 26 14.6 26.3582 14.6 26.8V28C14.6 28.7732 15.2268 29.4 16 29.4H18.2ZM25 30.2C25 30.6418 25.3582 31 25.8 31H28C29.6569 31 31 29.6569 31 28V26.8C31 26.3582 30.6418 26 30.2 26C29.7582 26 29.4 26.3582 29.4 26.8V28C29.4 28.7732 28.7732 29.4 28 29.4H25.8C25.3582 29.4 25 29.7582 25 30.2ZM25 13.8C25 14.2418 25.3582 14.6 25.8 14.6H28C28.7732 14.6 29.4 15.2268 29.4 16V17.2C29.4 17.6418 29.7582 18 30.2 18C30.6418 18 31 17.6418 31 17.2V16C31 14.3431 29.6569 13 28 13H25.8C25.3582 13 25 13.3582 25 13.8ZM14.9999 21.2C14.5581 21.2 14.1999 21.5582 14.1999 22C14.1999 22.4418 14.5581 22.8 14.9999 22.8L28.9999 22.8C29.4417 22.8 29.7999 22.4418 29.7999 22C29.7999 21.5582 29.4417 21.2 28.9999 21.2L14.9999 21.2Z" fill="white"/>
</svg>
