<svg width="44" height="44" viewBox="0 0 44 44" fill="none" xmlns="http://www.w3.org/2000/svg">
<rect width="44" height="44" rx="22" fill="#1B1E1F"/>
<g clip-path="url(#clip0_450_2938)">
<path fill-rule="evenodd" clip-rule="evenodd" d="M17.9495 14.3586C17.957 14.3629 17.9644 14.3672 17.9719 14.3715L29.1366 20.8438C29.2645 20.9178 29.3994 20.996 29.5061 21.0719C29.6139 21.1487 29.7978 21.2931 29.905 21.5402C30.0317 21.8324 30.0317 22.1676 29.905 22.4598C29.7978 22.7069 29.6139 22.8513 29.5061 22.9281C29.3994 23.004 29.2645 23.0821 29.1367 23.1562L17.9495 29.6415C17.7974 29.7297 17.6441 29.8186 17.5128 29.8793C17.3897 29.9362 17.1472 30.0385 16.8632 29.985C16.5394 29.9241 16.2607 29.7097 16.1085 29.4045C15.975 29.1368 15.996 28.8642 16.0112 28.7242C16.0274 28.575 16.0628 28.3953 16.0979 28.2171L16.6931 25.192C16.7001 25.1565 16.707 25.1216 16.7137 25.087C16.8395 24.4457 16.9344 23.962 17.1619 23.5471C17.3621 23.1821 17.6343 22.8657 17.9603 22.6191C18.3254 22.343 19.4766 22.1939 20.0601 22C19.4766 21.8061 18.3254 21.657 17.9603 21.3809C17.6343 21.1343 17.3621 20.8179 17.1619 20.4529C16.9344 20.038 16.8395 19.5543 16.7137 18.913C16.707 18.8784 16.7001 18.8435 16.6931 18.808L16.103 15.8091C16.1013 15.8003 16.0996 15.7916 16.0979 15.7829C16.0628 15.6047 16.0274 15.425 16.0112 15.2758C15.996 15.1358 15.975 14.8632 16.1085 14.5955C16.2607 14.2903 16.5394 14.0759 16.8632 14.015C17.1472 13.9615 17.3897 14.0638 17.5128 14.1207C17.6441 14.1814 17.7974 14.2703 17.9495 14.3586Z" fill="black"/>
</g>
<defs>
<clipPath id="clip0_450_2938">
<rect width="24" height="24" fill="white" transform="translate(10 10)"/>
</clipPath>
</defs>
</svg>
