<svg width="24" height="24" viewBox="0 0 24 24" fill="none" xmlns="http://www.w3.org/2000/svg">
<g clip-path="url(#clip0_245_9988)">
<path fill-rule="evenodd" clip-rule="evenodd" d="M12.0118 3.49994C12.7931 3.49994 13.0208 3.50637 13.2243 3.5552C13.4283 3.60419 13.6234 3.685 13.8024 3.79466C13.9807 3.90396 14.1463 4.06042 14.6988 4.61294L17.887 7.80116C18.4395 8.35367 18.596 8.51922 18.7053 8.69758C18.8149 8.87653 18.8957 9.07162 18.9447 9.27569C18.9936 9.4791 19 9.7068 19 10.4882V16.6999C19 17.5565 18.9992 18.1388 18.9624 18.5889C18.9266 19.0273 18.8617 19.2515 18.782 19.4079C18.5903 19.7842 18.2843 20.0902 17.908 20.282C17.7516 20.3616 17.5274 20.4266 17.089 20.4624C16.6389 20.4992 16.0566 20.4999 15.2 20.4999H8.8C7.94342 20.4999 7.36113 20.4992 6.91104 20.4624C6.47262 20.4266 6.24842 20.3616 6.09202 20.282C5.7157 20.0902 5.40974 19.7842 5.21799 19.4079C5.1383 19.2515 5.07337 19.0273 5.03755 18.5889C5.00078 18.1388 5 17.5565 5 16.6999V7.29994C5 6.44336 5.00078 5.86107 5.03755 5.41098C5.07337 4.97256 5.1383 4.74836 5.21799 4.59196C5.40974 4.21564 5.7157 3.90967 6.09202 3.71793C6.24842 3.63824 6.47262 3.57331 6.91104 3.53749C7.36113 3.50072 7.94342 3.49994 8.8 3.49994H12.0118ZM13.6911 1.61046C13.2284 1.49938 12.7487 1.49961 12.1137 1.49991L12.0118 1.49994H8.8L8.7587 1.49994C7.95373 1.49993 7.28937 1.49992 6.74818 1.54413C6.18608 1.59006 5.66937 1.68862 5.18404 1.93591C4.43139 2.31941 3.81947 2.93133 3.43598 3.68398C3.18868 4.16931 3.09012 4.68602 3.04419 5.24812C2.99998 5.78931 2.99999 6.45366 3 7.25862V7.25864V7.29994V16.6999V16.7412V16.7413C2.99999 17.5462 2.99998 18.2106 3.04419 18.7518C3.09012 19.3139 3.18868 19.8306 3.43598 20.3159C3.81947 21.0686 4.43139 21.6805 5.18404 22.064C5.66937 22.3113 6.18608 22.4098 6.74818 22.4557C7.28937 22.5 7.95372 22.5 8.75868 22.4999H8.8H15.2H15.2413C16.0463 22.5 16.7106 22.5 17.2518 22.4557C17.8139 22.4098 18.3306 22.3113 18.816 22.064C19.5686 21.6805 20.1805 21.0686 20.564 20.3159C20.8113 19.8306 20.9099 19.3139 20.9558 18.7518C21 18.2106 21 17.5462 21 16.7413V16.6999V10.4882L21 10.3863C21.0003 9.75129 21.0006 9.2715 20.8895 8.8088C20.7915 8.40066 20.6299 8.01048 20.4106 7.65259C20.1619 7.24687 19.8225 6.90777 19.3733 6.45897L19.3012 6.38695L16.113 3.19872L16.041 3.12666C15.5922 2.67743 15.2531 2.33801 14.8474 2.08938C14.4895 1.87007 14.0993 1.70845 13.6911 1.61046ZM8 11.9999C7.44772 11.9999 7 12.4477 7 12.9999C7 13.5522 7.44772 13.9999 8 13.9999H14C14.5523 13.9999 15 13.5522 15 12.9999C15 12.4477 14.5523 11.9999 14 11.9999H8ZM8 15.9999C7.44772 15.9999 7 16.4477 7 16.9999C7 17.5522 7.44772 17.9999 8 17.9999H16C16.5523 17.9999 17 17.5522 17 16.9999C17 16.4477 16.5523 15.9999 16 15.9999H8Z" fill="white"/>
</g>
<defs>
<clipPath id="clip0_245_9988">
<rect width="24" height="24" fill="white"/>
</clipPath>
</defs>
</svg>
