<svg width="375" height="52" viewBox="0 0 375 52" fill="none" xmlns="http://www.w3.org/2000/svg">
<rect x="20" width="335" height="52" rx="26" fill="white"/>
<path d="M125.806 24.6573L126.265 25.9877H125.346L125.806 24.6573Z" fill="#0C0D0F"/>
<path fill-rule="evenodd" clip-rule="evenodd" d="M119.5 25.408C119.5 21.8683 123.081 19 127.497 19C131.913 19 135.5 21.8714 135.5 25.411C135.5 28.9507 131.919 31.819 127.503 31.819C127.019 31.819 126.542 31.7854 126.082 31.7183C126.047 31.7434 125.998 31.7775 125.94 31.8193C125.225 32.3263 122.936 33.9517 122.702 33.9855C122.702 33.9855 122.597 34.0252 122.51 33.9733C122.423 33.9214 122.438 33.7841 122.438 33.7841L123.249 30.8395C120.996 29.7013 119.5 27.6965 119.5 25.408ZM123.073 27.6415C123.074 27.6415 123.074 27.6415 123.075 27.6415H123.072C123.072 27.6415 123.073 27.6415 123.073 27.6415ZM122.612 27.193C122.612 27.4397 122.819 27.6407 123.073 27.6415C123.325 27.6407 123.535 27.4366 123.535 27.193V24.407H124.256C124.502 24.407 124.706 24.2026 124.706 23.9493C124.706 23.6961 124.505 23.4916 124.256 23.4916H121.891C121.645 23.4916 121.441 23.6961 121.441 23.9493C121.441 24.2026 121.642 24.407 121.891 24.407H122.612V27.193ZM126.737 27.4279C126.782 27.5561 126.929 27.6354 127.121 27.6354C127.224 27.6354 127.326 27.6171 127.416 27.5744C127.542 27.5195 127.665 27.3517 127.524 26.9092L126.422 23.9585C126.346 23.7327 126.106 23.4886 125.806 23.4947C125.505 23.5008 125.268 23.7327 125.19 23.9585L124.087 26.9092C123.946 27.3517 124.069 27.5134 124.195 27.5744C124.289 27.6141 124.388 27.6354 124.49 27.6354C124.682 27.6354 124.829 27.5561 124.874 27.4279L125.103 26.8177H126.509L126.737 27.4279ZM127.824 27.1472C127.824 27.3822 128.026 27.5744 128.266 27.5744L129.747 27.5653C129.99 27.5653 130.189 27.373 130.189 27.1381C130.189 26.9031 129.987 26.7109 129.747 26.7109H128.768V23.9585C128.768 23.7022 128.557 23.4886 128.296 23.4886C128.035 23.4886 127.824 23.6991 127.824 23.9585V27.1472ZM130.366 23.9615V27.1655C130.366 27.7887 131.291 27.7653 131.291 27.1564V26.1341L131.45 25.9724L132.532 27.4279C132.677 27.6212 132.975 27.6721 133.178 27.5195C133.383 27.3739 133.421 27.0649 133.268 26.8665L132.132 25.3408L133.19 24.2728C133.349 24.1078 133.31 23.8453 133.157 23.69C132.994 23.5246 132.725 23.512 132.583 23.6564L131.291 24.9685V23.9615C131.291 23.7052 131.081 23.4916 130.829 23.4916C130.576 23.4916 130.366 23.7022 130.366 23.9615Z" fill="#0C0D0F"/>
<ellipse cx="127.5" cy="25.5" rx="7" ry="4.5" fill="#0C0D0F"/>
<path d="M153.312 20.6562C153.312 24.9297 152.141 28.5938 146.906 31.2031L145.969 29.8438C148.414 28.6406 149.867 27.2344 150.688 25.5625L146.312 25.9844L146.078 24.4688L151.219 24.1562C151.398 23.5 151.516 22.8047 151.578 22.0625H146.812V20.6562H153.312ZM157.031 19.2656V24.7812H159.125V26.2344H157.031V33.3594H155.266V19.2656H157.031ZM166.981 20.6562C166.981 24.9297 165.809 28.5938 160.574 31.2031L159.637 29.8438C162.082 28.6406 163.535 27.2344 164.356 25.5625L159.981 25.9844L159.746 24.4688L164.887 24.1562C165.067 23.5 165.184 22.8047 165.246 22.0625H160.481V20.6562H166.981ZM170.699 19.2656V24.7812H172.793V26.2344H170.699V33.3594H168.934V19.2656H170.699ZM179.727 20.0625C182.758 20.0703 184.993 21.5781 184.993 23.875C184.993 25.9766 183.18 27.3984 180.602 27.6562V30.2344H186.196V31.6875H173.305V30.2344H178.852V27.6562C176.282 27.3984 174.461 25.9688 174.461 23.875C174.461 21.5781 176.703 20.0703 179.727 20.0625ZM179.727 21.4687C177.657 21.4687 176.188 22.3906 176.18 23.875C176.188 25.3906 177.657 26.3047 179.727 26.3125C181.797 26.3047 183.274 25.3906 183.274 23.875C183.274 22.3906 181.797 21.4687 179.727 21.4687ZM199.864 30.3125V31.75H186.973V30.3125H192.52V28.0156H188.504V23.3906H196.614V21.6406H188.473V20.2344H198.364V24.7812H190.239V26.6094H198.692V28.0156H194.27V30.3125H199.864ZM209.731 22.625C209.731 25.2578 211.098 27.8281 213.388 28.8281L212.356 30.25C210.716 29.4766 209.528 27.9766 208.888 26.125C208.231 28.1172 207.013 29.7344 205.309 30.5469L204.247 29.0937C206.591 28.0547 207.973 25.3437 207.966 22.625V20.4062H209.731V22.625ZM216.138 19.2656V33.4062H214.388V19.2656H216.138ZM223.134 21.6875C223.142 23.4297 224.259 25.1484 226.478 25.875L225.587 27.25C224.009 26.7266 222.892 25.6719 222.274 24.3437C221.649 25.7969 220.478 26.9453 218.821 27.5L217.915 26.1406C220.196 25.375 221.368 23.5547 221.368 21.7031V21.5625H218.399V20.1562H226.056V21.5625H223.134V21.6875ZM229.196 19.2812V22.7812H231.181V24.2344H229.196V27.7656H227.446V19.2812H229.196ZM229.196 28.4375V33.375H227.446V29.8437H219.806V28.4375H229.196ZM242.817 19.2812V24.875H244.974V26.3437H242.817V33.375H241.052V19.2812H242.817ZM239.989 21.4219V22.8281H231.661V21.4219H234.974V19.4844H236.739V21.4219H239.989ZM235.864 23.7656C237.911 23.7578 239.419 25.1328 239.411 27.0781C239.419 29.0234 237.911 30.3984 235.864 30.3906C233.817 30.3984 232.31 29.0234 232.317 27.0781C232.31 25.1328 233.817 23.7578 235.864 23.7656ZM235.864 25.2031C234.771 25.2031 233.989 25.9297 233.989 27.0781C233.989 28.2266 234.771 28.9609 235.864 28.9531C236.95 28.9609 237.739 28.2266 237.739 27.0781C237.739 25.9297 236.95 25.2031 235.864 25.2031ZM257.189 19.2656V33.375H255.439V19.2656H257.189ZM252.97 20.75C252.978 24.9766 251.361 28.5312 246.423 30.9062L245.486 29.5C249.181 27.75 250.884 25.375 251.189 22.1562H246.204V20.75H252.97Z" fill="#0C0D0F"/>
</svg>
