<svg width="24" height="24" viewBox="0 0 24 24" fill="none" xmlns="http://www.w3.org/2000/svg">
<path d="M22.5011 4.33189L21.7414 3.54879C21.4885 3.28814 21.3621 3.15782 21.2376 3.06793C20.6368 2.63392 19.8277 2.62549 19.218 3.04689C19.0917 3.13416 18.9626 3.26182 18.7043 3.51714L18.7043 3.51716L12.398 9.75219C10.8635 11.2693 10 13.3445 10 15.5024C10 15.7766 10.2223 16 10.4966 16C12.5881 16 14.5954 15.1753 16.0827 13.7047L22.4692 7.3904C22.7465 7.1163 22.8851 6.97925 22.9789 6.84275C23.382 6.2565 23.3901 5.48456 22.9993 4.89003C22.9083 4.75161 22.7725 4.6117 22.5011 4.33189Z" fill="white"/>
<path d="M0 19H8L9.5 22H0V19Z" fill="url(#paint0_linear_494_2327)"/>
<defs>
<linearGradient id="paint0_linear_494_2327" x1="7.5" y1="21" x2="-5.76158e-08" y2="21" gradientUnits="userSpaceOnUse">
<stop stop-color="white"/>
<stop offset="1" stop-color="white" stop-opacity="0"/>
</linearGradient>
</defs>
</svg>
