<svg width="20" height="20" viewBox="0 0 20 20" fill="none" xmlns="http://www.w3.org/2000/svg">
<path fill-rule="evenodd" clip-rule="evenodd" d="M2.13721 0H9.304C9.92215 0 10.2312 0 10.5232 0.0640724C10.8414 0.133879 11.1447 0.259502 11.419 0.435116C11.6708 0.596303 11.8894 0.814851 12.3265 1.25195L18.1198 7.04528C19.12 8.0455 19.6201 8.54561 19.8296 9.11327C20.0568 9.72929 20.0568 10.4062 19.8296 11.0222C19.6201 11.5899 19.12 12.09 18.1198 13.0902L13.0902 18.1198C12.09 19.12 11.5899 19.6201 11.0222 19.8296C10.4062 20.0568 9.72929 20.0568 9.11327 19.8296C8.54561 19.6201 8.04551 19.12 7.0453 18.1198L1.25195 12.3265C0.814855 11.8894 0.596302 11.6708 0.435116 11.419C0.259502 11.1447 0.133879 10.8414 0.0640724 10.5232C0 10.2312 0 9.92215 0 9.304V2.13721C0 1.42995 0 1.07632 0.126656 0.801577C0.264105 0.503428 0.503428 0.264105 0.801577 0.126656C1.07632 0 1.42995 0 2.13721 0ZM5.97499 7.35372C6.7365 7.35372 7.35383 6.73639 7.35383 5.97488C7.35383 5.21336 6.7365 4.59603 5.97499 4.59603C5.21348 4.59603 4.59615 5.21336 4.59615 5.97488C4.59615 6.73639 5.21348 7.35372 5.97499 7.35372Z" fill="#484C52"/>
</svg>
