<svg width="24" height="24" viewBox="0 0 24 24" fill="none" xmlns="http://www.w3.org/2000/svg">
<g clip-path="url(#clip0_245_9985)">
<circle cx="12" cy="12" r="10" stroke="white" stroke-width="2" stroke-linecap="round" stroke-linejoin="round"/>
<circle cx="12" cy="17.25" r="1.25" fill="white"/>
<path fill-rule="evenodd" clip-rule="evenodd" d="M10.5 9.49994C10.5 8.67154 11.1716 8 12 8C12.8284 8 13.5 8.67157 13.5 9.5V9.55397C13.5 10.0998 13.2136 10.6056 12.7455 10.8865L12.343 11.128C11.5098 11.6279 11 12.5283 11 13.5C11 14.0523 11.4477 14.5 12 14.5C12.1607 14.5 12.3126 14.4621 12.4472 14.3947C12.775 14.2305 13.0001 13.8915 13.0001 13.4999H13C13 13.2308 13.1412 12.9815 13.372 12.843L13.7745 12.6015C14.845 11.9592 15.5 10.8023 15.5 9.55397V9.5C15.5 7.567 13.933 6 12 6C10.067 6 8.5 7.567 8.5 9.5C8.5 10.0523 8.94772 10.5 9.5 10.5C9.66075 10.5 9.81264 10.4621 9.94721 10.3947C10.275 10.2305 10.5001 9.89152 10.5001 9.49994H10.5Z" fill="white"/>
<path d="M13.2501 17.25C13.2501 17.9404 12.6905 18.5 12.0001 18.5C11.3098 18.5 10.7501 17.9404 10.7501 17.25C10.7501 16.5596 11.3098 16 12.0001 16C12.6905 16 13.2501 16.5596 13.2501 17.25Z" fill="white"/>
<path d="M12 8C11.1716 8 10.5 8.67154 10.5 9.49994C10.5 10.0522 10.0524 10.4999 9.50012 10.4999C8.94786 10.4999 8.50016 10.0523 8.50012 9.5C8.50012 7.567 10.067 6 12 6C13.933 6 15.5 7.567 15.5 9.5V9.55397C15.5 10.8023 14.845 11.9592 13.7745 12.6015L13.372 12.843C13.1412 12.9815 13 13.2308 13 13.4999C13 14.0522 12.5524 14.4999 12.0001 14.4999C11.4479 14.4999 11.0002 14.0523 11.0001 13.5C11.0001 12.5283 11.5098 11.6279 12.343 11.128L12.7455 10.8865C13.2136 10.6056 13.5 10.0998 13.5 9.55397V9.5C13.5 8.67157 12.8284 8 12 8Z" fill="white"/>
<path fill-rule="evenodd" clip-rule="evenodd" d="M1 12C1 5.92487 5.92487 1 12 1C18.0751 1 23 5.92487 23 12C23 18.0751 18.0751 23 12 23C5.92487 23 1 18.0751 1 12ZM12 3C7.02944 3 3 7.02944 3 12C3 16.9706 7.02944 21 12 21C16.9706 21 21 16.9706 21 12C21 7.02944 16.9706 3 12 3Z" fill="white"/>
</g>
<defs>
<clipPath id="clip0_245_9985">
<rect width="24" height="24" fill="white"/>
</clipPath>
</defs>
</svg>
